<?xml version="1.0" encoding="UTF-8"?>
<svg width="512" height="512" viewBox="0 0 512 512" fill="none" xmlns="http://www.w3.org/2000/svg">
  <rect width="512" height="512" rx="128" fill="#2563eb"/>
  <path d="M256 128C228.327 128 208 148.327 208 176C208 203.673 228.327 224 256 224C283.673 224 304 203.673 304 176C304 148.327 283.673 128 256 128Z" fill="white"/>
  <path d="M144 256C144 220.654 172.654 192 208 192H304C339.346 192 368 220.654 368 256V320C368 355.346 339.346 384 304 384H208C172.654 384 144 355.346 144 320V256Z" fill="white"/>
  <path d="M256 320C283.673 320 304 299.673 304 272C304 244.327 283.673 224 256 224C228.327 224 208 244.327 208 272C208 299.673 228.327 320 256 320Z" fill="#2563eb"/>
</svg>

